<svg width="33" height="30" viewBox="0 0 33 30" fill="none" xmlns="http://www.w3.org/2000/svg">
<path fill-rule="evenodd" clip-rule="evenodd" d="M15.1744 0H0V14.373H15.1744V0ZM5.37662 9.02421H8.25849L8.69168 10.06C8.80398 10.3296 8.86415 10.4829 8.87217 10.5196C8.89624 10.5973 8.90827 10.6729 8.90827 10.7464C8.90827 10.869 8.86415 10.963 8.77591 11.0283C8.64756 11.1182 8.42495 11.1632 8.10808 11.1632H7.94564V11.3899H11.8924V11.1632C11.6437 11.1427 11.4512 11.0692 11.3148 10.9425C11.1344 10.775 10.9037 10.3685 10.623 9.72289L7.68091 2.90766H7.5666L4.64863 9.53903C4.37187 10.1723 4.13924 10.5911 3.95072 10.7954C3.76221 10.9956 3.52155 11.1182 3.22875 11.1632V11.3899H5.94216V11.1632C5.517 11.1305 5.25027 11.0814 5.14198 11.0161C4.95747 10.9058 4.86522 10.7341 4.86522 10.5013C4.86522 10.3256 4.92137 10.1029 5.03368 9.83321L5.37662 9.02421ZM8.05393 8.57068L6.83861 5.70853L5.58719 8.57068H8.05393Z" fill="#202B61"/>
<path fill-rule="evenodd" clip-rule="evenodd" d="M32.3487 0H17.1744V14.373H32.3487V0ZM22.551 9.02421H25.4329L25.8661 10.06C25.9784 10.3296 26.0385 10.4829 26.0465 10.5196C26.0706 10.5973 26.0826 10.6729 26.0826 10.7464C26.0826 10.869 26.0385 10.963 25.9503 11.0283C25.8219 11.1182 25.5993 11.1632 25.2825 11.1632H25.12V11.3899H29.0668V11.1632C28.8181 11.1427 28.6256 11.0692 28.4892 10.9425C28.3087 10.775 28.0781 10.3685 27.7973 9.72289L24.8553 2.90766H24.741L21.823 9.53903C21.5462 10.1723 21.3136 10.5911 21.1251 10.7954C20.9366 10.9956 20.6959 11.1182 20.4031 11.1632V11.3899H23.1165V11.1632C22.6914 11.1305 22.4246 11.0814 22.3164 11.0161C22.1318 10.9058 22.0396 10.7341 22.0396 10.5013C22.0396 10.3256 22.0958 10.1029 22.2081 9.83321L22.551 9.02421ZM25.2283 8.57068L24.013 5.70853L22.7616 8.57068H25.2283Z" fill="#65638B"/>
<path fill-rule="evenodd" clip-rule="evenodd" d="M0 15.373H15.1744V29.746H0V15.373ZM7.19416 22.4074V18.9936H7.95223C8.60201 18.9936 9.04722 19.0243 9.28788 19.0855C9.72508 19.1959 10.058 19.3859 10.2866 19.6555C10.5192 19.9252 10.6636 20.3399 10.7198 20.8997H10.9665V18.5156H4.08366V18.7423H4.3544C4.58302 18.7423 4.76352 18.7832 4.89588 18.8649C5.03225 18.9425 5.1225 19.0345 5.16662 19.1407C5.21074 19.2469 5.2328 19.5125 5.2328 19.9375V25.4043C5.2328 25.8211 5.21074 26.0785 5.16662 26.1766C5.11047 26.3155 5.03025 26.4136 4.92596 26.4708C4.78157 26.5566 4.59105 26.5995 4.3544 26.5995H4.08366V26.8262H8.34932V26.5995H8.07858C7.84995 26.5995 7.66745 26.5606 7.53108 26.483C7.39872 26.4013 7.30847 26.3073 7.26034 26.2011C7.21622 26.0949 7.19416 25.8293 7.19416 25.4043V22.8609H7.4288C7.85797 22.8609 8.24102 22.9876 8.57794 23.2409C8.91887 23.4901 9.12744 24.009 9.20365 24.7976H9.41423V20.6239H9.20365C9.15552 21.0692 9.05124 21.4227 8.8908 21.6842C8.73437 21.9457 8.54184 22.1316 8.31322 22.2419C8.08459 22.3522 7.78979 22.4074 7.4288 22.4074H7.19416Z" fill="#EFA100"/>
<path fill-rule="evenodd" clip-rule="evenodd" d="M17.1744 15.373H32.3487V29.746H17.1744V15.373ZM27.0264 18.5156L24.8123 23.9947L22.5201 18.5156H19.187V18.7423H19.4457C19.6743 18.7423 19.8568 18.7832 19.9932 18.8649C20.1295 18.9425 20.2198 19.0345 20.2639 19.1407C20.308 19.2429 20.3301 19.5043 20.3301 19.9252V25.1837C20.3301 25.5555 20.3261 25.7639 20.318 25.8088C20.2739 26.0009 20.2118 26.15 20.1315 26.2562C20.0513 26.3625 19.933 26.4483 19.7766 26.5137C19.6201 26.5749 19.4517 26.6035 19.2712 26.5995H19.187V26.8262H21.9786V26.5995C21.6056 26.5995 21.3308 26.5361 21.1543 26.4095C20.9819 26.2787 20.8696 26.1112 20.8174 25.9069C20.7974 25.8129 20.7873 25.5617 20.7873 25.1531V19.3001L23.964 26.8262H24.1084L27.237 19.2449V25.4043C27.237 25.8211 27.2149 26.0785 27.1708 26.1766C27.1106 26.3155 27.0304 26.4136 26.9301 26.4708C26.7857 26.5566 26.5932 26.5995 26.3525 26.5995H26.0878V26.8262H30.3475V26.5995H30.0827C29.8541 26.5995 29.6716 26.5606 29.5352 26.483C29.3989 26.4013 29.3086 26.3073 29.2645 26.2011C29.2204 26.0949 29.1983 25.8293 29.1983 25.4043V19.9252C29.1983 19.5125 29.2204 19.2572 29.2645 19.1591C29.3247 19.0243 29.4049 18.9282 29.5052 18.871C29.6496 18.7852 29.8421 18.7423 30.0827 18.7423H30.3475V18.5156H27.0264Z" fill="#202B61"/>
</svg>
